{
  "accessors": [
    {
      "bufferView": 2,
      "componentType": 5126,
      "count": 65532,
      "max": [
        0.07778999954462051,
        0.07260599732398987,
        0.3972789943218231
      ],
      "min": [
        -0.08418499678373337,
        -0.07192700356245041,
        0.0034600000362843275
      ],
      "type": "VEC3"
    },
    {
      "bufferView": 2,
      "byteOffset": 786384,
      "componentType": 5126,
      "count": 65532,
      "max": [
        0.9999986886978149,
        0.9999823570251465,
        0.9999998807907104
      ],
      "min": [
        -0.9999867677688599,
        -0.999969482421875,
        -0.9999948740005493
      ],
      "type": "VEC3"
    },
    {
      "bufferView": 1,
      "componentType": 5126,
      "count": 65532,
      "max": [
        0.9999110102653503,
        0.9813439846038818
      ],
      "min": [
        9.999999974752427e-07,
        7.999999979801942e-06
      ],
      "type": "VEC2"
    },
    {
      "bufferView": 0,
      "componentType": 5125,
      "count": 380457,
      "type": "SCALAR"
    },
    {
      "bufferView": 2,
      "byteOffset": 1572768,
      "componentType": 5126,
      "count": 3514,
      "max": [
        0.07629299908876419,
        0.07124099880456924,
        0.39695098996162415
      ],
      "min": [
        -0.06732200086116791,
        -0.071602001786232,
        0.20987600088119507
      ],
      "type": "VEC3"
    },
    {
      "bufferView": 2,
      "byteOffset": 1614936,
      "componentType": 5126,
      "count": 3514,
      "max": [
        0.9998842477798462,
        0.9997262358665466,
        0.9999986886978149
      ],
      "min": [
        -0.9987911581993103,
        -0.9997689127922058,
        -0.9999003410339355
      ],
      "type": "VEC3"
    },
    {
      "bufferView": 1,
      "byteOffset": 524256,
      "componentType": 5126,
      "count": 3514,
      "max": [
        0.9931830167770386,
        0.8486260175704956
      ],
      "min": [
        0.13745099306106567,
        0.002068999921903014
      ],
      "type": "VEC2"
    },
    {
      "bufferView": 0,
      "byteOffset": 1521828,
      "componentType": 5125,
      "count": 11496,
      "type": "SCALAR"
    }
  ],
  "asset": {
    "extras": {
      "author": "Lassi Kaukonen (https://sketchfab.com/thesidekick)",
      "license": "CC-BY-4.0 (http://creativecommons.org/licenses/by/4.0/)",
      "source": "https://sketchfab.com/3d-models/used-bolt-f7d2340d2b3b4520957ae032f31b11c7",
      "title": "Used bolt"
    },
    "generator": "Sketchfab-12.68.0",
    "version": "2.0"
  },
  "bufferViews": [
    {
      "buffer": 0,
      "byteLength": 1567812,
      "name": "floatBufferViews",
      "target": 34963
    },
    {
      "buffer": 0,
      "byteLength": 552368,
      "byteOffset": 1567812,
      "byteStride": 8,
      "name": "floatBufferViews",
      "target": 34962
    },
    {
      "buffer": 0,
      "byteLength": 1657104,
      "byteOffset": 2120180,
      "byteStride": 12,
      "name": "floatBufferViews",
      "target": 34962
    }
  ],
  "buffers": [
    {
      "byteLength": 3777284,
      "uri": "scene.bin"
    }
  ],
  "images": [
    {
      "uri": "textures/Bolt_High_baseColor.jpeg"
    },
    {
      "uri": "textures/Bolt_High_metallicRoughness.png"
    }
  ],
  "materials": [
    {
      "doubleSided": true,
      "name": "Bolt_High",
      "occlusionTexture": {
        "index": 1
      },
      "pbrMetallicRoughness": {
        "baseColorTexture": {
          "index": 0
        },
        "metallicRoughnessTexture": {
          "index": 1
        },
        "roughnessFactor": 0.6926136363636364
      }
    }
  ],
  "meshes": [
    {
      "name": "Object_0",
      "primitives": [
        {
          "attributes": {
            "NORMAL": 1,
            "POSITION": 0,
            "TEXCOORD_0": 2
          },
          "indices": 3,
          "material": 0,
          "mode": 4
        }
      ]
    },
    {
      "name": "Object_1",
      "primitives": [
        {
          "attributes": {
            "NORMAL": 5,
            "POSITION": 4,
            "TEXCOORD_0": 6
          },
          "indices": 7,
          "material": 0,
          "mode": 4
        }
      ]
    }
  ],
  "nodes": [
    {
      "children": [
        1
      ],
      "matrix": [
        1.0,
        0.0,
        0.0,
        0.0,
        0.0,
        2.220446049250313e-16,
        -1.0,
        0.0,
        0.0,
        1.0,
        2.220446049250313e-16,
        0.0,
        0.0,
        0.0,
        0.0,
        1.0
      ],
      "name": "Sketchfab_model"
    },
    {
      "children": [
        2,
        3
      ],
      "name": "Bolt_High_SF.obj.cleaner.materialmerger.gles"
    },
    {
      "mesh": 0,
      "name": "Object_2"
    },
    {
      "mesh": 1,
      "name": "Object_3"
    }
  ],
  "samplers": [
    {
      "magFilter": 9729,
      "minFilter": 9987,
      "wrapS": 10497,
      "wrapT": 10497
    }
  ],
  "scene": 0,
  "scenes": [
    {
      "name": "Sketchfab_Scene",
      "nodes": [
        0
      ]
    }
  ],
  "textures": [
    {
      "sampler": 0,
      "source": 0
    },
    {
      "sampler": 0,
      "source": 1
    }
  ]
}
